<?xml version="1.0" encoding="UTF-8" standalone="no"?>
<!DOCTYPE svg PUBLIC "-//W3C//DTD SVG 1.1//EN" "http://www.w3.org/Graphics/SVG/1.1/DTD/svg11.dtd">
<svg width="64px" height="auto" viewBox="0 0 64 32" version="1.1" xmlns="http://www.w3.org/2000/svg" xmlns:xlink="http://www.w3.org/1999/xlink" xml:space="preserve" style="fill-rule:evenodd;clip-rule:evenodd;stroke-linejoin:round;stroke-miterlimit:1.41421;">
    <g transform="matrix(3.05543,0,0,2.93496,-16.9857,5.9573)">
        <path d="M6.611,3.845C6.611,3.519 6.71,3.193 6.907,2.867C7.105,2.541 7.366,2.223 7.692,1.912C8.018,1.601 8.389,1.309 8.804,1.038C9.218,0.766 9.641,0.526 10.07,0.319C10.5,0.112 10.92,-0.051 11.33,-0.17C11.74,-0.288 12.098,-0.348 12.404,-0.348C12.404,-0.061 12.332,0.201 12.189,0.438C12.046,0.675 11.856,0.897 11.619,1.104C11.382,1.312 11.117,1.512 10.826,1.704C10.535,1.897 10.248,2.087 9.967,2.275C9.685,2.462 9.416,2.66 9.159,2.867C8.902,3.075 8.695,3.297 8.537,3.534C8.527,3.564 8.517,3.584 8.507,3.593L8.507,3.771C8.517,3.801 8.527,3.826 8.537,3.845C8.557,3.855 8.604,3.905 8.678,3.993C8.752,4.082 8.808,4.137 8.848,4.156C8.897,4.196 9.013,4.27 9.196,4.379C9.379,4.487 9.591,4.621 9.833,4.779C10.075,4.937 10.332,5.1 10.604,5.268C10.875,5.436 11.13,5.598 11.367,5.757C11.604,5.915 11.811,6.05 11.989,6.164C12.167,6.278 12.29,6.354 12.359,6.394C12.379,6.403 12.431,6.45 12.515,6.534C12.599,6.618 12.646,6.67 12.656,6.69C12.656,6.72 12.661,6.749 12.67,6.779C12.67,6.789 12.673,6.804 12.678,6.823C12.683,6.843 12.685,6.858 12.685,6.868C12.685,6.878 12.683,6.89 12.678,6.905C12.673,6.92 12.67,6.932 12.67,6.942C12.661,6.971 12.656,6.996 12.656,7.016C12.636,7.055 12.591,7.115 12.522,7.194C12.453,7.273 12.387,7.344 12.322,7.408C12.258,7.473 12.196,7.529 12.137,7.579C12.078,7.628 12.038,7.653 12.019,7.653C11.861,7.653 11.616,7.591 11.285,7.468C10.954,7.344 10.589,7.179 10.189,6.971C9.789,6.764 9.379,6.527 8.959,6.26C8.539,5.994 8.154,5.717 7.803,5.431C7.453,5.144 7.166,4.863 6.944,4.586C6.722,4.309 6.611,4.063 6.611,3.845Z" style="fill:rgb(20,70,160);fill-rule:nonzero;"/>
        <path d="M13.478,6.654C13.494,6.595 13.522,6.49 13.56,6.338C13.598,6.186 13.636,6.024 13.673,5.851C13.711,5.678 13.747,5.518 13.781,5.371C13.815,5.223 13.84,5.12 13.857,5.061C13.916,4.825 14.004,4.498 14.122,4.081C14.24,3.664 14.386,3.217 14.559,2.741C14.731,2.265 14.929,1.784 15.153,1.299C15.376,0.815 15.625,0.389 15.899,0.022C16.173,-0.344 16.47,-0.625 16.79,-0.818C17.111,-1.012 17.456,-1.059 17.827,-0.958C17.709,-0.486 17.559,-0.041 17.378,0.376C17.197,0.794 17.003,1.202 16.797,1.603C16.59,2.003 16.379,2.399 16.164,2.791C15.949,3.183 15.741,3.582 15.538,3.986C15.336,4.391 15.153,4.812 14.988,5.251C14.824,5.689 14.696,6.157 14.603,6.654C14.561,6.899 14.481,7.04 14.363,7.078C14.245,7.116 14.11,7.113 13.958,7.071C13.848,7.046 13.747,7.008 13.655,6.958C13.562,6.907 13.503,6.806 13.478,6.654Z" style="fill:rgb(219,48,105);fill-rule:nonzero;"/>
        <path d="M19.406,7.016C19.406,6.858 19.475,6.65 19.613,6.394C19.751,6.137 19.929,5.863 20.146,5.571C20.364,5.28 20.598,4.979 20.85,4.668C21.102,4.356 21.346,4.06 21.583,3.779C21.821,3.497 22.028,3.25 22.206,3.038C22.384,2.825 22.512,2.67 22.591,2.571C22.591,2.551 22.596,2.524 22.606,2.49C22.616,2.455 22.621,2.428 22.621,2.408C22.621,2.408 22.616,2.383 22.606,2.334C22.596,2.314 22.591,2.29 22.591,2.26C22.571,2.22 22.522,2.161 22.443,2.082C22.364,2.003 22.305,1.954 22.265,1.934C22.206,1.894 22.087,1.82 21.909,1.712C21.732,1.603 21.524,1.47 21.287,1.312C21.05,1.154 20.796,0.991 20.524,0.823C20.252,0.655 19.998,0.494 19.761,0.341C19.524,0.188 19.317,0.055 19.139,-0.059C18.961,-0.172 18.838,-0.244 18.768,-0.274C18.62,-0.372 18.519,-0.476 18.465,-0.585C18.41,-0.693 18.383,-0.837 18.383,-1.014C18.65,-1.014 18.998,-0.972 19.428,-0.888C19.857,-0.804 20.309,-0.691 20.783,-0.548C21.258,-0.404 21.737,-0.234 22.221,-0.037C22.705,0.161 23.139,0.376 23.524,0.608C23.91,0.84 24.226,1.085 24.473,1.341C24.72,1.598 24.843,1.85 24.843,2.097C24.843,2.117 24.838,2.144 24.828,2.178C24.818,2.213 24.813,2.24 24.813,2.26C24.724,2.369 24.591,2.529 24.413,2.741C24.236,2.954 24.033,3.198 23.806,3.475C23.579,3.751 23.339,4.04 23.087,4.342C22.835,4.643 22.593,4.927 22.361,5.194C22.129,5.46 21.919,5.702 21.732,5.919C21.544,6.137 21.406,6.295 21.317,6.394C21.169,6.562 21.05,6.705 20.961,6.823C20.872,6.942 20.791,7.041 20.717,7.12C20.643,7.199 20.559,7.258 20.465,7.297C20.371,7.337 20.24,7.357 20.072,7.357C20.033,7.357 19.976,7.354 19.902,7.349C19.828,7.344 19.754,7.332 19.68,7.312C19.606,7.292 19.541,7.26 19.487,7.216C19.433,7.171 19.406,7.105 19.406,7.016Z" style="fill:rgb(20,70,160);fill-rule:nonzero;"/>
    </g>
</svg>
